# xmcd CD database file
#
# Track frame offsets:
#	150
#	17698
#	39005
#	58390
#	77422
#
# Disc length: 1353 seconds
#
# Revision: 0
# Processed by: cddbd v1.5.1PL0 Copyright (c) Steve Scherf et al.
# Submitted via: CDex 1.51
#
DISCID=2f054705
DTITLE=飯塚　雅弓 - プレゼント
DYEAR=2005
DGENRE=Pop
TTITLE0=ゆびきり
TTITLE1=真冬のセレナーデ
TTITLE2=恋のRibbon
TTITLE3=明日になれば
TTITLE4=M
EXTD=YEAR: 2005
EXTT0=
EXTT1=
EXTT2=
EXTT3=
EXTT4=
PLAYORDER=
